<svg xmlns="http://www.w3.org/2000/svg" width="1600" height="520" viewBox="0 0 1600 520">
<defs>
 <linearGradient id="bg" x1="0" y1="0" x2="1" y2="1"><stop stop-color="#06140f"/><stop offset=".55" stop-color="#0d2c20"/><stop offset="1" stop-color="#12613f"/></linearGradient>
 <radialGradient id="glow"><stop stop-color="#2ecc71" stop-opacity=".48"/><stop offset="1" stop-color="#2ecc71" stop-opacity="0"/></radialGradient>
 <linearGradient id="meter" x1="0" x2="1"><stop stop-color="#35e58a"/><stop offset="1" stop-color="#7affc0"/></linearGradient>
</defs>
<rect width="1600" height="520" rx="28" fill="url(#bg)"/>
<circle cx="1310" cy="250" r="330" fill="url(#glow)"/>
<g stroke="#fff" stroke-opacity=".055"><path d="M0 100h1600M0 200h1600M0 300h1600M0 400h1600M160 0v520M320 0v520M480 0v520M640 0v520M800 0v520M960 0v520M1120 0v520M1280 0v520M1440 0v520"/></g>
<text x="76" y="92" fill="#91f3bd" font-family="Arial" font-size="18" font-weight="700" letter-spacing="4">MILLENNIUM DAWN • FARSI</text>
<text x="76" y="180" fill="#fff" font-family="Arial" font-size="68" font-weight="800">LIVE PROGRESS</text>
<text x="78" y="224" fill="#b8d8c8" font-family="Arial" font-size="25">Translation journey powered by ParaTranz</text>
<g transform="translate(76 280)">
 <rect width="900" height="88" rx="44" fill="#000" fill-opacity=".22" stroke="#fff" stroke-opacity=".12"/>
 <rect x="18" y="18" width="864" height="52" rx="26" fill="#fff" fill-opacity=".055"/>
 <rect x="18" y="18" width="240" height="52" rx="26" fill="url(#meter)"/>
 <circle cx="258" cy="44" r="9" fill="#fff"/>
</g>
<text x="76" y="415" fill="#fff" font-family="Arial" font-size="48" font-weight="800">PROGRESS ENGINE</text>
<text x="78" y="450" fill="#a8cdb9" font-family="Arial" font-size="20">ONLINE • LIVE DATA • AUTOMATED REFRESH</text>
<g transform="translate(1190 108)">
 <circle cx="150" cy="150" r="118" fill="#000" fill-opacity=".18" stroke="#fff" stroke-opacity=".12" stroke-width="18"/>
 <path d="M150 32 A118 118 0 0 1 261 111" fill="none" stroke="#57ef9e" stroke-width="18" stroke-linecap="round"/>
 <path d="M266 103l-5 35-30-20" fill="#57ef9e"/>
 <text x="150" y="164" text-anchor="middle" fill="#fff" font-family="Arial" font-size="25" font-weight="700">TRANSLATE</text>
</g>
<text x="76" y="492" fill="#67967f" font-family="Arial" font-size="15" letter-spacing="3">MD-FARSI-LOCALIZATION • PROGRESS MONITOR</text>
</svg>