<svg xmlns="http://www.w3.org/2000/svg" width="1600" height="420" viewBox="0 0 1600 420"><defs><linearGradient id="g" x1="0" x2="1"><stop stop-color="#0b1426"/><stop offset="1" stop-color="#1769aa"/></linearGradient><radialGradient id="r"><stop stop-color="#3498db" stop-opacity=".55"/><stop offset="1" stop-color="#3498db" stop-opacity="0"/></radialGradient></defs><rect width="1600" height="420" fill="url(#g)"/><circle cx="1340" cy="210" r="260" fill="url(#r)"/><g fill="none" stroke="#fff" stroke-opacity=".08"><path d="M0 80H1600M0 160H1600M0 240H1600M0 320H1600M80 0V420M160 0V420M240 0V420M320 0V420M400 0V420M480 0V420M560 0V420M640 0V420M720 0V420M800 0V420M880 0V420M960 0V420M1040 0V420M1120 0V420M1200 0V420M1280 0V420M1360 0V420M1440 0V420M1520 0V420"/></g><circle cx="1340" cy="210" r="82" fill="none" stroke="#fff" stroke-opacity=".7" stroke-width="3"/><rect x="1308" y="178" width="64" height="64" rx="8" fill="none" stroke="#fff" stroke-width="8"/><text x="70" y="82" fill="#fff" fill-opacity=".7" font-family="Arial" font-size="24" font-weight="700">MILLENNIUM DAWN</text><text x="70" y="170" fill="#fff" font-family="Arial" font-size="64" font-weight="800">PROJECT STATISTICS</text><text x="70" y="218" fill="#fff" fill-opacity=".82" font-family="Arial" font-size="27">Live data • ParaTranz synchronized</text><rect x="70" y="285" width="500" height="52" rx="26" fill="#fff" fill-opacity=".08" stroke="#fff" stroke-opacity=".2"/><text x="95" y="319" fill="#fff" fill-opacity=".8" font-family="Arial" font-size="19">FARSI LOCALIZATION • AUTO SYNC</text></svg>